<svg xmlns="http://www.w3.org/2000/svg" viewBox="0 0 480 160" width="100%" height="100%">
  <!-- Vilakku Mark (scaled down to 80px height on left) -->
  <g transform="translate(10, 32) scale(0.2)">
    <!-- Outer Flame -->
    <path d="M 240,220 C 180,220 180,140 240,80 C 300,140 300,220 240,220 Z" fill="#F07020"/>
    <!-- Inner Flame -->
    <path d="M 240,210 C 195,210 195,150 240,100 C 285,150 285,210 240,210 Z" fill="#F5C518"/>
    <!-- Core Flame -->
    <path d="M 240,200 C 210,200 210,160 240,120 C 270,160 270,200 240,200 Z" fill="#FFFDE0"/>
    <!-- Oil Bowl -->
    <ellipse cx="240" cy="230" rx="52" ry="22" fill="#F5C518"/>
    <ellipse cx="240" cy="228" rx="40" ry="16" fill="#C88010"/>
    <!-- Stem -->
    <rect x="230" y="252" width="20" height="38" rx="8" fill="#E8A820"/>
    <!-- Base -->
    <path d="M200,330 L170,390 L310,390 L280,330 Z" fill="#F5C518"/>
    <rect x="160" y="390" width="160" height="18" rx="6" fill="#C88010"/>
  </g>
  
  <!-- Vertical Divider -->
  <line x1="115" y1="24" x2="115" y2="136" stroke="#F5C518" stroke-width="2" opacity="0.3"/>
  
  <!-- Text elements -->
  <text x="135" y="72" font-family="'Inter', 'Outfit', 'Segoe UI', sans-serif" font-weight="800" font-size="42" fill="#FFFFFF">TNPSC Master</text>
  <text x="135" y="112" font-family="'Inter', 'Outfit', 'Segoe UI', sans-serif" font-weight="600" font-size="20" fill="#F5C518" letter-spacing="0.08em">GROUP 4 · 2026</text>
</svg>
